<svg width="14" height="14" viewBox="0 0 14 14" fill="none" xmlns="http://www.w3.org/2000/svg">
<g clip-path="url(#clip0_427_2559)">
<path d="M7.53847 3.23071H6.46155V7.53841H10.7692V6.46148H7.53847V3.23071Z" fill="#CD7520"/>
<path d="M7 1.07692C10.2308 1.07692 12.9231 3.76923 12.9231 7C12.9231 10.2308 10.2308 12.9231 7 12.9231C3.76923 12.9231 1.07692 10.2308 1.07692 7C1.07692 3.76923 3.76923 1.07692 7 1.07692ZM7 0C3.12308 0 0 3.12308 0 7C0 10.8769 3.12308 14 7 14C10.8769 14 14 10.8769 14 7C14 3.12308 10.8769 0 7 0Z" fill="#CD7520"/>
</g>
<defs>
<clipPath id="clip0_427_2559">
<rect width="14" height="14" fill="white"/>
</clipPath>
</defs>
</svg>
